<?xml version="1.0" standalone="no"?>
<!DOCTYPE svg PUBLIC "-//W3C//DTD SVG 20010904//EN" "http://www.w3.org/TR/2001/REC-SVG-20010904/DTD/svg10.dtd">
<svg version="1.0" xmlns="http://www.w3.org/2000/svg"
width="500.000000pt" height="500.000000pt" viewBox="0 0 500.000000 500.000000"
preserveAspectRatio="xMidYMid meet">
<metadata>
Created by potrace 1.16, written by Peter Selinger 2001-2019
</metadata>
<g transform="translate(0.000000,500.000000) scale(0.100000,-0.100000)"
fill="#FFFFFF" stroke="none">
<path d="M2315 4664 c-522 -54 -985 -272 -1345 -633 -252 -253 -428 -539 -534
-866 -76 -235 -106 -429 -106 -680 0 -411 103 -783 313 -1135 203 -339 526
-638 879 -816 149 -75 367 -155 491 -180 234 -47 248 -49 512 -48 253 0 264 1
415 32 85 18 209 51 275 73 846 286 1430 1050 1484 1942 55 886 -438 1724
-1238 2104 -159 76 -382 148 -554 179 -115 21 -180 26 -347 29 -113 2 -223 1
-245 -1z m296 -405 c171 -37 320 -182 358 -350 13 -56 14 -150 1 -183 l-10
-26 -452 2 -453 3 -6 38 c-13 78 6 183 46 265 43 87 131 178 203 212 96 45
215 60 313 39z m823 -649 c39 -200 -8 -460 -117 -635 -130 -209 -334 -367
-547 -421 l-70 -18 0 -147 c0 -147 0 -147 34 -220 39 -82 66 -200 66 -281 0
-83 -37 -235 -70 -295 l-30 -53 0 -173 0 -172 103 -49 c129 -62 254 -140 377
-232 105 -80 240 -200 240 -215 0 -5 -362 -9 -905 -9 -531 0 -905 4 -905 9 0
13 144 146 230 211 112 85 239 162 371 227 l119 58 0 171 0 170 -34 67 c-44
89 -61 171 -60 297 0 116 16 186 65 282 28 56 29 62 29 205 l0 149 -70 18
c-81 21 -236 93 -294 138 -154 119 -281 292 -334 458 -45 140 -60 305 -40 428
l11 62 912 0 913 0 6 -30z"/>
</g>
</svg>
